<svg width="334" height="44" viewBox="0 0 334 44" fill="none" xmlns="http://www.w3.org/2000/svg">
<path d="M5 0.5H68.5V43.5H5C2.51472 43.5 0.5 41.4853 0.5 39V5C0.5 2.51472 2.51472 0.5 5 0.5Z" fill="#6FFFE9" stroke="#6FFFE9"/>
<rect x="0.5" y="0.5" width="333" height="43" rx="4.5" stroke="#6FFFE9"/>
<path d="M88.688 25.816H92.592V27H87.232V15.848H88.688V25.816ZM100.794 27.112C99.7596 27.112 98.8156 26.872 97.9623 26.392C97.1089 25.9013 96.4316 25.224 95.9303 24.36C95.4396 23.4853 95.1943 22.504 95.1943 21.416C95.1943 20.328 95.4396 19.352 95.9303 18.488C96.4316 17.6133 97.1089 16.936 97.9623 16.456C98.8156 15.9653 99.7596 15.72 100.794 15.72C101.84 15.72 102.789 15.9653 103.642 16.456C104.496 16.936 105.168 17.608 105.658 18.472C106.149 19.336 106.394 20.3173 106.394 21.416C106.394 22.5147 106.149 23.496 105.658 24.36C105.168 25.224 104.496 25.9013 103.642 26.392C102.789 26.872 101.84 27.112 100.794 27.112ZM100.794 25.848C101.573 25.848 102.272 25.6667 102.89 25.304C103.52 24.9413 104.01 24.424 104.362 23.752C104.725 23.08 104.906 22.3013 104.906 21.416C104.906 20.52 104.725 19.7413 104.362 19.08C104.01 18.408 103.525 17.8907 102.906 17.528C102.288 17.1653 101.584 16.984 100.794 16.984C100.005 16.984 99.3009 17.1653 98.6823 17.528C98.0636 17.8907 97.5729 18.408 97.2103 19.08C96.8583 19.7413 96.6823 20.52 96.6823 21.416C96.6823 22.3013 96.8583 23.08 97.2103 23.752C97.5729 24.424 98.0636 24.9413 98.6823 25.304C99.3116 25.6667 100.016 25.848 100.794 25.848ZM118.364 19.08C118.055 18.4293 117.607 17.928 117.02 17.576C116.434 17.2133 115.751 17.032 114.972 17.032C114.194 17.032 113.49 17.2133 112.86 17.576C112.242 17.928 111.751 18.44 111.388 19.112C111.036 19.7733 110.86 20.5413 110.86 21.416C110.86 22.2907 111.036 23.0587 111.388 23.72C111.751 24.3813 112.242 24.8933 112.86 25.256C113.49 25.608 114.194 25.784 114.972 25.784C116.06 25.784 116.956 25.4587 117.66 24.808C118.364 24.1573 118.775 23.2773 118.892 22.168H114.444V20.984H120.444V22.104C120.359 23.0213 120.071 23.864 119.58 24.632C119.09 25.3893 118.444 25.992 117.644 26.44C116.844 26.8773 115.954 27.096 114.972 27.096C113.938 27.096 112.994 26.856 112.14 26.376C111.287 25.8853 110.61 25.208 110.108 24.344C109.618 23.48 109.372 22.504 109.372 21.416C109.372 20.328 109.618 19.352 110.108 18.488C110.61 17.6133 111.287 16.936 112.14 16.456C112.994 15.9653 113.938 15.72 114.972 15.72C116.156 15.72 117.202 16.0133 118.108 16.6C119.026 17.1867 119.692 18.0133 120.108 19.08H118.364ZM131.291 15.848V27H129.835V15.848H131.291ZM144.141 27H142.685L136.829 18.12V27H135.373V15.832H136.829L142.685 24.696V15.832H144.141V27ZM168.104 15.848L164.872 27H163.24L160.648 18.024L157.96 27L156.344 27.016L153.224 15.848H154.776L157.208 25.304L159.896 15.848H161.528L164.088 25.272L166.536 15.848H168.104ZM172.754 15.848V27H171.298V15.848H172.754ZM183.699 15.848V17.032H180.659V27H179.203V17.032H176.147V15.848H183.699ZM195.683 15.848V27H194.227V21.944H188.547V27H187.091V15.848H188.547V20.744H194.227V15.848H195.683ZM211.939 15.848V17.032H207.091V20.792H211.027V21.976H207.091V27H205.635V15.848H211.939ZM221.89 24.52H217.026L216.13 27H214.594L218.626 15.912H220.306L224.322 27H222.786L221.89 24.52ZM221.474 23.336L219.458 17.704L217.442 23.336H221.474ZM227.135 21.416C227.135 20.328 227.38 19.352 227.871 18.488C228.362 17.6133 229.028 16.9307 229.871 16.44C230.724 15.9493 231.668 15.704 232.703 15.704C233.919 15.704 234.98 15.9973 235.887 16.584C236.794 17.1707 237.455 18.0027 237.871 19.08H236.127C235.818 18.408 235.37 17.8907 234.783 17.528C234.207 17.1653 233.514 16.984 232.703 16.984C231.924 16.984 231.226 17.1653 230.607 17.528C229.988 17.8907 229.503 18.408 229.151 19.08C228.799 19.7413 228.623 20.52 228.623 21.416C228.623 22.3013 228.799 23.08 229.151 23.752C229.503 24.4133 229.988 24.9253 230.607 25.288C231.226 25.6507 231.924 25.832 232.703 25.832C233.514 25.832 234.207 25.656 234.783 25.304C235.37 24.9413 235.818 24.424 236.127 23.752H237.871C237.455 24.8187 236.794 25.6453 235.887 26.232C234.98 26.808 233.919 27.096 232.703 27.096C231.668 27.096 230.724 26.856 229.871 26.376C229.028 25.8853 228.362 25.208 227.871 24.344C227.38 23.48 227.135 22.504 227.135 21.416ZM243.094 17.032V20.76H247.158V21.96H243.094V25.8H247.638V27H241.638V15.832H247.638V17.032H243.094ZM257.025 21.256C257.431 21.32 257.799 21.4853 258.129 21.752C258.471 22.0187 258.737 22.3493 258.929 22.744C259.132 23.1387 259.233 23.56 259.233 24.008C259.233 24.5733 259.089 25.0853 258.801 25.544C258.513 25.992 258.092 26.3493 257.537 26.616C256.993 26.872 256.348 27 255.601 27H251.441V15.848H255.441C256.199 15.848 256.844 15.976 257.377 16.232C257.911 16.4773 258.311 16.8133 258.577 17.24C258.844 17.6667 258.977 18.1467 258.977 18.68C258.977 19.3413 258.796 19.8907 258.433 20.328C258.081 20.7547 257.612 21.064 257.025 21.256ZM252.897 20.664H255.345C256.028 20.664 256.556 20.504 256.929 20.184C257.303 19.864 257.489 19.4213 257.489 18.856C257.489 18.2907 257.303 17.848 256.929 17.528C256.556 17.208 256.017 17.048 255.313 17.048H252.897V20.664ZM255.473 25.8C256.199 25.8 256.764 25.6293 257.169 25.288C257.575 24.9467 257.777 24.472 257.777 23.864C257.777 23.2453 257.564 22.76 257.137 22.408C256.711 22.0453 256.14 21.864 255.425 21.864H252.897V25.8H255.473ZM267.91 27.112C266.875 27.112 265.931 26.872 265.078 26.392C264.225 25.9013 263.547 25.224 263.046 24.36C262.555 23.4853 262.31 22.504 262.31 21.416C262.31 20.328 262.555 19.352 263.046 18.488C263.547 17.6133 264.225 16.936 265.078 16.456C265.931 15.9653 266.875 15.72 267.91 15.72C268.955 15.72 269.905 15.9653 270.758 16.456C271.611 16.936 272.283 17.608 272.774 18.472C273.265 19.336 273.51 20.3173 273.51 21.416C273.51 22.5147 273.265 23.496 272.774 24.36C272.283 25.224 271.611 25.9013 270.758 26.392C269.905 26.872 268.955 27.112 267.91 27.112ZM267.91 25.848C268.689 25.848 269.387 25.6667 270.006 25.304C270.635 24.9413 271.126 24.424 271.478 23.752C271.841 23.08 272.022 22.3013 272.022 21.416C272.022 20.52 271.841 19.7413 271.478 19.08C271.126 18.408 270.641 17.8907 270.022 17.528C269.403 17.1653 268.699 16.984 267.91 16.984C267.121 16.984 266.417 17.1653 265.798 17.528C265.179 17.8907 264.689 18.408 264.326 19.08C263.974 19.7413 263.798 20.52 263.798 21.416C263.798 22.3013 263.974 23.08 264.326 23.752C264.689 24.424 265.179 24.9413 265.798 25.304C266.427 25.6667 267.131 25.848 267.91 25.848ZM282.088 27.112C281.053 27.112 280.109 26.872 279.256 26.392C278.403 25.9013 277.725 25.224 277.224 24.36C276.733 23.4853 276.488 22.504 276.488 21.416C276.488 20.328 276.733 19.352 277.224 18.488C277.725 17.6133 278.403 16.936 279.256 16.456C280.109 15.9653 281.053 15.72 282.088 15.72C283.133 15.72 284.083 15.9653 284.936 16.456C285.789 16.936 286.461 17.608 286.952 18.472C287.443 19.336 287.688 20.3173 287.688 21.416C287.688 22.5147 287.443 23.496 286.952 24.36C286.461 25.224 285.789 25.9013 284.936 26.392C284.083 26.872 283.133 27.112 282.088 27.112ZM282.088 25.848C282.867 25.848 283.565 25.6667 284.184 25.304C284.813 24.9413 285.304 24.424 285.656 23.752C286.019 23.08 286.2 22.3013 286.2 21.416C286.2 20.52 286.019 19.7413 285.656 19.08C285.304 18.408 284.819 17.8907 284.2 17.528C283.581 17.1653 282.877 16.984 282.088 16.984C281.299 16.984 280.595 17.1653 279.976 17.528C279.357 17.8907 278.867 18.408 278.504 19.08C278.152 19.7413 277.976 20.52 277.976 21.416C277.976 22.3013 278.152 23.08 278.504 23.752C278.867 24.424 279.357 24.9413 279.976 25.304C280.605 25.6667 281.309 25.848 282.088 25.848ZM297.258 27L292.666 21.912V27H291.21V15.848H292.666V21.016L297.274 15.848H299.114L294.058 21.432L299.162 27H297.258Z" fill="#6FFFE9"/>
<path d="M35.9644 18.2256V16.5885C35.9644 16.3427 35.9757 16.1524 35.9987 16.0179C36.0216 15.8832 36.0737 15.7508 36.1545 15.62C36.2353 15.4894 36.366 15.3991 36.5465 15.3492C36.7272 15.2991 36.9674 15.2741 37.2673 15.2741H38.9043V12H36.2872C34.7729 12 33.6853 12.3593 33.0243 13.0778C32.3633 13.7965 32.0329 14.8552 32.0329 16.2541V18.2256H30.0727V21.4999H32.0328V30.9999H35.9644V21.5H38.5813L38.9272 18.2256H35.9644V18.2256Z" fill="#101935"/>
</svg>
