<svg width="334" height="44" viewBox="0 0 334 44" fill="none" xmlns="http://www.w3.org/2000/svg">
<rect x="0.5" y="0.5" width="333" height="43" rx="4.5" stroke="#6FFFE9"/>
<path d="M0.5 5C0.5 2.51472 2.51472 0.5 5 0.5H68.5V43.5H5C2.51472 43.5 0.5 41.4853 0.5 39V5Z" fill="#6FFFE9" stroke="#6FFFE9"/>
<path d="M88.688 26.816H92.592V28H87.232V16.848H88.688V26.816ZM100.794 28.112C99.7596 28.112 98.8156 27.872 97.9623 27.392C97.1089 26.9013 96.4316 26.224 95.9303 25.36C95.4396 24.4853 95.1943 23.504 95.1943 22.416C95.1943 21.328 95.4396 20.352 95.9303 19.488C96.4316 18.6133 97.1089 17.936 97.9623 17.456C98.8156 16.9653 99.7596 16.72 100.794 16.72C101.84 16.72 102.789 16.9653 103.642 17.456C104.496 17.936 105.168 18.608 105.658 19.472C106.149 20.336 106.394 21.3173 106.394 22.416C106.394 23.5147 106.149 24.496 105.658 25.36C105.168 26.224 104.496 26.9013 103.642 27.392C102.789 27.872 101.84 28.112 100.794 28.112ZM100.794 26.848C101.573 26.848 102.272 26.6667 102.89 26.304C103.52 25.9413 104.01 25.424 104.362 24.752C104.725 24.08 104.906 23.3013 104.906 22.416C104.906 21.52 104.725 20.7413 104.362 20.08C104.01 19.408 103.525 18.8907 102.906 18.528C102.288 18.1653 101.584 17.984 100.794 17.984C100.005 17.984 99.3009 18.1653 98.6823 18.528C98.0636 18.8907 97.5729 19.408 97.2103 20.08C96.8583 20.7413 96.6823 21.52 96.6823 22.416C96.6823 23.3013 96.8583 24.08 97.2103 24.752C97.5729 25.424 98.0636 25.9413 98.6823 26.304C99.3116 26.6667 100.016 26.848 100.794 26.848ZM118.364 20.08C118.055 19.4293 117.607 18.928 117.02 18.576C116.434 18.2133 115.751 18.032 114.972 18.032C114.194 18.032 113.49 18.2133 112.86 18.576C112.242 18.928 111.751 19.44 111.388 20.112C111.036 20.7733 110.86 21.5413 110.86 22.416C110.86 23.2907 111.036 24.0587 111.388 24.72C111.751 25.3813 112.242 25.8933 112.86 26.256C113.49 26.608 114.194 26.784 114.972 26.784C116.06 26.784 116.956 26.4587 117.66 25.808C118.364 25.1573 118.775 24.2773 118.892 23.168H114.444V21.984H120.444V23.104C120.359 24.0213 120.071 24.864 119.58 25.632C119.09 26.3893 118.444 26.992 117.644 27.44C116.844 27.8773 115.954 28.096 114.972 28.096C113.938 28.096 112.994 27.856 112.14 27.376C111.287 26.8853 110.61 26.208 110.108 25.344C109.618 24.48 109.372 23.504 109.372 22.416C109.372 21.328 109.618 20.352 110.108 19.488C110.61 18.6133 111.287 17.936 112.14 17.456C112.994 16.9653 113.938 16.72 114.972 16.72C116.156 16.72 117.202 17.0133 118.108 17.6C119.026 18.1867 119.692 19.0133 120.108 20.08H118.364ZM131.291 16.848V28H129.835V16.848H131.291ZM144.141 28H142.685L136.829 19.12V28H135.373V16.832H136.829L142.685 25.696V16.832H144.141V28ZM168.104 16.848L164.872 28H163.24L160.648 19.024L157.96 28L156.344 28.016L153.224 16.848H154.776L157.208 26.304L159.896 16.848H161.528L164.088 26.272L166.536 16.848H168.104ZM172.754 16.848V28H171.298V16.848H172.754ZM183.699 16.848V18.032H180.659V28H179.203V18.032H176.147V16.848H183.699ZM195.683 16.848V28H194.227V22.944H188.547V28H187.091V16.848H188.547V21.744H194.227V16.848H195.683ZM214.083 20.08C213.774 19.4293 213.326 18.928 212.739 18.576C212.152 18.2133 211.47 18.032 210.691 18.032C209.912 18.032 209.208 18.2133 208.579 18.576C207.96 18.928 207.47 19.44 207.107 20.112C206.755 20.7733 206.579 21.5413 206.579 22.416C206.579 23.2907 206.755 24.0587 207.107 24.72C207.47 25.3813 207.96 25.8933 208.579 26.256C209.208 26.608 209.912 26.784 210.691 26.784C211.779 26.784 212.675 26.4587 213.379 25.808C214.083 25.1573 214.494 24.2773 214.611 23.168H210.163V21.984H216.163V23.104C216.078 24.0213 215.79 24.864 215.299 25.632C214.808 26.3893 214.163 26.992 213.363 27.44C212.563 27.8773 211.672 28.096 210.691 28.096C209.656 28.096 208.712 27.856 207.859 27.376C207.006 26.8853 206.328 26.208 205.827 25.344C205.336 24.48 205.091 23.504 205.091 22.416C205.091 21.328 205.336 20.352 205.827 19.488C206.328 18.6133 207.006 17.936 207.859 17.456C208.712 16.9653 209.656 16.72 210.691 16.72C211.875 16.72 212.92 17.0133 213.827 17.6C214.744 18.1867 215.411 19.0133 215.827 20.08H214.083ZM224.744 28.112C223.71 28.112 222.766 27.872 221.912 27.392C221.059 26.9013 220.382 26.224 219.88 25.36C219.39 24.4853 219.144 23.504 219.144 22.416C219.144 21.328 219.39 20.352 219.88 19.488C220.382 18.6133 221.059 17.936 221.912 17.456C222.766 16.9653 223.71 16.72 224.744 16.72C225.79 16.72 226.739 16.9653 227.592 17.456C228.446 17.936 229.118 18.608 229.608 19.472C230.099 20.336 230.344 21.3173 230.344 22.416C230.344 23.5147 230.099 24.496 229.608 25.36C229.118 26.224 228.446 26.9013 227.592 27.392C226.739 27.872 225.79 28.112 224.744 28.112ZM224.744 26.848C225.523 26.848 226.222 26.6667 226.84 26.304C227.47 25.9413 227.96 25.424 228.312 24.752C228.675 24.08 228.856 23.3013 228.856 22.416C228.856 21.52 228.675 20.7413 228.312 20.08C227.96 19.408 227.475 18.8907 226.856 18.528C226.238 18.1653 225.534 17.984 224.744 17.984C223.955 17.984 223.251 18.1653 222.632 18.528C222.014 18.8907 221.523 19.408 221.16 20.08C220.808 20.7413 220.632 21.52 220.632 22.416C220.632 23.3013 220.808 24.08 221.16 24.752C221.523 25.424 222.014 25.9413 222.632 26.304C223.262 26.6667 223.966 26.848 224.744 26.848ZM238.922 28.112C237.888 28.112 236.944 27.872 236.09 27.392C235.237 26.9013 234.56 26.224 234.058 25.36C233.568 24.4853 233.322 23.504 233.322 22.416C233.322 21.328 233.568 20.352 234.058 19.488C234.56 18.6133 235.237 17.936 236.09 17.456C236.944 16.9653 237.888 16.72 238.922 16.72C239.968 16.72 240.917 16.9653 241.77 17.456C242.624 17.936 243.296 18.608 243.786 19.472C244.277 20.336 244.522 21.3173 244.522 22.416C244.522 23.5147 244.277 24.496 243.786 25.36C243.296 26.224 242.624 26.9013 241.77 27.392C240.917 27.872 239.968 28.112 238.922 28.112ZM238.922 26.848C239.701 26.848 240.4 26.6667 241.018 26.304C241.648 25.9413 242.138 25.424 242.49 24.752C242.853 24.08 243.034 23.3013 243.034 22.416C243.034 21.52 242.853 20.7413 242.49 20.08C242.138 19.408 241.653 18.8907 241.034 18.528C240.416 18.1653 239.712 17.984 238.922 17.984C238.133 17.984 237.429 18.1653 236.81 18.528C236.192 18.8907 235.701 19.408 235.338 20.08C234.986 20.7413 234.81 21.52 234.81 22.416C234.81 23.3013 234.986 24.08 235.338 24.752C235.701 25.424 236.192 25.9413 236.81 26.304C237.44 26.6667 238.144 26.848 238.922 26.848ZM256.493 20.08C256.183 19.4293 255.735 18.928 255.149 18.576C254.562 18.2133 253.879 18.032 253.101 18.032C252.322 18.032 251.618 18.2133 250.989 18.576C250.37 18.928 249.879 19.44 249.517 20.112C249.165 20.7733 248.989 21.5413 248.989 22.416C248.989 23.2907 249.165 24.0587 249.517 24.72C249.879 25.3813 250.37 25.8933 250.989 26.256C251.618 26.608 252.322 26.784 253.101 26.784C254.189 26.784 255.085 26.4587 255.789 25.808C256.493 25.1573 256.903 24.2773 257.021 23.168H252.573V21.984H258.573V23.104C258.487 24.0213 258.199 24.864 257.709 25.632C257.218 26.3893 256.573 26.992 255.773 27.44C254.973 27.8773 254.082 28.096 253.101 28.096C252.066 28.096 251.122 27.856 250.269 27.376C249.415 26.8853 248.738 26.208 248.237 25.344C247.746 24.48 247.501 23.504 247.501 22.416C247.501 21.328 247.746 20.352 248.237 19.488C248.738 18.6133 249.415 17.936 250.269 17.456C251.122 16.9653 252.066 16.72 253.101 16.72C254.285 16.72 255.33 17.0133 256.237 17.6C257.154 18.1867 257.821 19.0133 258.237 20.08H256.493ZM263.554 26.816H267.458V28H262.098V16.848H263.554V26.816ZM272.06 18.032V21.76H276.124V22.96H272.06V26.8H276.604V28H270.604V16.832H276.604V18.032H272.06Z" fill="#6FFFE9"/>
<path d="M44 21.7152C44 26.9662 40.4258 30.7031 35.1475 30.7031C30.0869 30.7031 26 26.5914 26 21.5C26 16.4086 30.0869 12.2969 35.1475 12.2969C37.6115 12.2969 39.6844 13.2061 41.2816 14.7053L38.7918 17.1137C35.5348 13.952 29.4783 16.327 29.4783 21.5C29.4783 24.71 32.027 27.3113 35.1475 27.3113C38.7697 27.3113 40.127 24.6988 40.341 23.3443H35.1475V20.1789H43.8561C43.941 20.6502 44 21.1029 44 21.7152Z" fill="#101935"/>
</svg>
